<?xml version="1.0" standalone="no"?><!DOCTYPE svg PUBLIC "-//W3C//DTD SVG 1.1//EN" "http://www.w3.org/Graphics/SVG/1.1/DTD/svg11.dtd"><svg t="1573716681493" class="icon" viewBox="0 0 1024 1024" version="1.1" xmlns="http://www.w3.org/2000/svg" p-id="6742" xmlns:xlink="http://www.w3.org/1999/xlink" width="32" height="32"><defs><style type="text/css"></style></defs><path d="M191.1 190.2h640.1v640.1H191.1V190.2z m42.6 42.7v554.6h554.6V232.9H233.7z" p-id="6743" fill="#4f6fba"></path><path d="M283.1 556h456.6v39.8H435.2l-12.2 26h253.5c-4.4 52.7-11.9 84.6-22.4 95.7-11.2 10.8-34 16.2-68.4 16.2l-54.1-2.5-11.2-40.7c25.2 2.6 46.9 3.9 65.3 3.9 12.6 0 21.8-1.6 27.5-4.9 5.1-2.9 8.8-13.1 11.2-30.4H356.1l28.1-63.3h-101V556z m61.8-246.4h122.4c4.8-9.2 8.5-19.3 11.2-30.4l48 5.9c-3.1 8.8-6.8 17-11.2 24.5h167.8v225.8H344.9V309.6z m293.8 189V346.4H389.2v152.2h249.5z m-232.6-96.7h34.7c-7.5-12.4-13.9-22.1-19.4-29l32.6-10.3c7.5 10.5 14.8 23.6 21.9 39.3h16.3v-44.2H532v44.2h15.8c9.2-11.8 17.3-26 24.5-42.7l34.2 9.3c-6.8 13.1-13.6 24.2-20.4 33.4h36.7v30.9H532v53h-39.8v-35.3c-18.4 15.4-42.3 28.8-71.9 40.2l-18.4-29c29.9-8.2 54.1-17.8 72.4-29h-68.4v-30.8z m152 34.9c24.5 7.2 46.4 15.2 65.8 24.1l-18.4 27c-20.7-11.8-42-21.1-63.8-28l16.4-23.1z" p-id="6744" fill="#4f6fba"></path></svg>